<svg xmlns="http://www.w3.org/2000/svg" viewBox="0 0 600 360" width="600" height="360">
  <defs>
    <linearGradient id="g" x1="0" y1="0" x2="1" y2="1">
      <stop offset="0" stop-color="#0a0a0f"/>
      <stop offset="1" stop-color="#00e5ff" stop-opacity="0.28"/>
    </linearGradient>
  </defs>
  <rect width="600" height="360" fill="url(#g)"/>
  <g stroke="#00e5ff" stroke-opacity="0.10" stroke-width="1"><line x1="0" y1="0" x2="0" y2="360"/><line x1="40" y1="0" x2="40" y2="360"/><line x1="80" y1="0" x2="80" y2="360"/><line x1="120" y1="0" x2="120" y2="360"/><line x1="160" y1="0" x2="160" y2="360"/><line x1="200" y1="0" x2="200" y2="360"/><line x1="240" y1="0" x2="240" y2="360"/><line x1="280" y1="0" x2="280" y2="360"/><line x1="320" y1="0" x2="320" y2="360"/><line x1="360" y1="0" x2="360" y2="360"/><line x1="400" y1="0" x2="400" y2="360"/><line x1="440" y1="0" x2="440" y2="360"/><line x1="480" y1="0" x2="480" y2="360"/><line x1="520" y1="0" x2="520" y2="360"/><line x1="560" y1="0" x2="560" y2="360"/><line x1="600" y1="0" x2="600" y2="360"/><line x1="0" y1="0" x2="600" y2="0"/><line x1="0" y1="40" x2="600" y2="40"/><line x1="0" y1="80" x2="600" y2="80"/><line x1="0" y1="120" x2="600" y2="120"/><line x1="0" y1="160" x2="600" y2="160"/><line x1="0" y1="200" x2="600" y2="200"/><line x1="0" y1="240" x2="600" y2="240"/><line x1="0" y1="280" x2="600" y2="280"/><line x1="0" y1="320" x2="600" y2="320"/><line x1="0" y1="360" x2="600" y2="360"/></g>
  <circle cx="300" cy="150" r="72" fill="none" stroke="#00e5ff" stroke-width="2" stroke-opacity="0.55"/>
  <circle cx="300" cy="150" r="48" fill="none" stroke="#00e5ff" stroke-width="1" stroke-opacity="0.35"/>
  <text x="300" y="162" text-anchor="middle" font-family="JetBrains Mono, monospace" font-size="30" font-weight="500" fill="#00e5ff" fill-opacity="0.9">AI</text>
  <text x="32" y="318" font-family="Space Grotesk, sans-serif" font-size="25" font-weight="700" fill="#e5e7eb">AI-assisted Minesweeper</text>
  <text x="32" y="342" font-family="JetBrains Mono, monospace" font-size="13" fill="#00e5ff">#00E5FF</text>
</svg>